# xmcd
#
# Track frame offsets: 
#        150
#        14353
#        30388
#        55318
#        75745
#        97448
#        112083
#        144005
#        166545
#        183515
#        202023
#        220820
#        239015
#        260053
#        274480
#        296090
#
# Disc length: 4238 seconds
#
# Revision: 76
# Processed by: cddbd v1.5.2PL0 Copyright (c) Steve Scherf et al.
# Submitted via: ExactAudioCopy v1.0b3
#
DISCID=f5108c10
DTITLE=Roxette - Tourism
DYEAR=1992
DGENRE=Pop
TTITLE0=How Do You Do! (Studio: Halmstad and Stockholm)
TTITLE1=Fingertips (Studio: Rio de Janeiro)
TTITLE2=The Look (Live: Sydney)
TTITLE3=The Heart Shaped Sea (Studio: Los Angeles)
TTITLE4=The Rain (Studio: Stockholm)
TTITLE5=Keep Me Waiting (Studio: Stockholm)
TTITLE6=It Must Have Been Love (Live: Santiago - Studio: Los Angeles)
TTITLE7=Cinnamon Street (Studio: Stockholm and Copenhagen)
TTITLE8=Never Is A Long Time (Nightclub: São Paulo)
TTITLE9=Silver Blue (Studio: Stockholm)
TTITLE10=Here Comes The Weekend (Hotelroom: Buenos Aires)
TTITLE11=So Far Away (Hotelroom: Buenos Aires)
TTITLE12=Come Back (Before You Leave) (Studio: Stockholm)
TTITLE13=Things Will Never Be The Same (Live: Zürich)
TTITLE14=Joyride (Live: Sydney)
TTITLE15=Queen Of Rain (Studio: Stockholm)
EXTD=
EXTT0=
EXTT1=
EXTT2=Live
EXTT3=
EXTT4=
EXTT5=
EXTT6=Live
EXTT7=
EXTT8=
EXTT9=
EXTT10=
EXTT11=
EXTT12=
EXTT13=Live
EXTT14=Live
EXTT15=
PLAYORDER=
